<mxfile host="app.diagrams.net" modified="2022-02-09T14:16:13.311Z" agent="5.0 (Windows NT 10.0; Win64; x64) AppleWebKit/537.36 (KHTML, like Gecko) Chrome/98.0.4758.82 Safari/537.36" etag="fgOCmtExGgAM-7xoeoaN" version="16.5.3" type="github">
  <diagram id="aE3KeAXCjtRjzj1fttQv" name="第 1 页">
    <mxGraphModel dx="949" dy="633" grid="0" gridSize="10" guides="1" tooltips="1" connect="1" arrows="1" fold="1" page="1" pageScale="1" pageWidth="827" pageHeight="1169" math="0" shadow="0">
      <root>
        <mxCell id="0" />
        <mxCell id="1" parent="0" />
        <mxCell id="qA26B9ss1q_fTnFmii6e-31" value="" style="rounded=1;whiteSpace=wrap;html=1;fillColor=#ffcc99;strokeColor=#36393d;" vertex="1" parent="1">
          <mxGeometry x="120" y="150" width="540" height="110" as="geometry" />
        </mxCell>
        <mxCell id="qA26B9ss1q_fTnFmii6e-12" style="rounded=0;orthogonalLoop=1;jettySize=auto;html=1;exitX=0.145;exitY=0;exitDx=0;exitDy=4.35;exitPerimeter=0;entryX=0.5;entryY=1;entryDx=0;entryDy=0;strokeColor=#33FF33;" edge="1" parent="1" source="qA26B9ss1q_fTnFmii6e-1" target="qA26B9ss1q_fTnFmii6e-3">
          <mxGeometry relative="1" as="geometry" />
        </mxCell>
        <mxCell id="qA26B9ss1q_fTnFmii6e-14" style="edgeStyle=none;rounded=0;orthogonalLoop=1;jettySize=auto;html=1;exitX=0.5;exitY=0;exitDx=0;exitDy=0;exitPerimeter=0;entryX=0.5;entryY=1;entryDx=0;entryDy=0;strokeColor=#33FF33;" edge="1" parent="1" source="qA26B9ss1q_fTnFmii6e-1" target="qA26B9ss1q_fTnFmii6e-6">
          <mxGeometry relative="1" as="geometry" />
        </mxCell>
        <mxCell id="qA26B9ss1q_fTnFmii6e-23" style="edgeStyle=none;rounded=0;orthogonalLoop=1;jettySize=auto;html=1;exitX=1;exitY=0;exitDx=0;exitDy=15;exitPerimeter=0;entryX=0.5;entryY=1;entryDx=0;entryDy=0;strokeColor=#33FF33;" edge="1" parent="1" source="qA26B9ss1q_fTnFmii6e-1" target="qA26B9ss1q_fTnFmii6e-9">
          <mxGeometry relative="1" as="geometry" />
        </mxCell>
        <mxCell id="qA26B9ss1q_fTnFmii6e-1" value="数据库" style="shape=cylinder3;whiteSpace=wrap;html=1;boundedLbl=1;backgroundOutline=1;size=15;fillColor=#cdeb8b;strokeColor=#36393d;" vertex="1" parent="1">
          <mxGeometry x="290" y="420" width="200" height="70" as="geometry" />
        </mxCell>
        <mxCell id="qA26B9ss1q_fTnFmii6e-16" style="edgeStyle=none;rounded=0;orthogonalLoop=1;jettySize=auto;html=1;exitX=0.25;exitY=1;exitDx=0;exitDy=0;entryX=0.025;entryY=0.129;entryDx=0;entryDy=0;entryPerimeter=0;strokeColor=#000000;" edge="1" parent="1" source="qA26B9ss1q_fTnFmii6e-2" target="qA26B9ss1q_fTnFmii6e-1">
          <mxGeometry relative="1" as="geometry" />
        </mxCell>
        <mxCell id="qA26B9ss1q_fTnFmii6e-2" value="" style="rounded=1;whiteSpace=wrap;html=1;align=center;fillColor=#cce5ff;strokeColor=#36393d;" vertex="1" parent="1">
          <mxGeometry x="170" y="290" width="120" height="80" as="geometry" />
        </mxCell>
        <mxCell id="qA26B9ss1q_fTnFmii6e-3" value="一级缓存" style="ellipse;whiteSpace=wrap;html=1;fillColor=#ffff88;strokeColor=#36393d;" vertex="1" parent="1">
          <mxGeometry x="205" y="320" width="50" height="50" as="geometry" />
        </mxCell>
        <mxCell id="qA26B9ss1q_fTnFmii6e-32" style="edgeStyle=none;rounded=0;orthogonalLoop=1;jettySize=auto;html=1;exitX=0.5;exitY=0;exitDx=0;exitDy=0;entryX=0.4;entryY=0.986;entryDx=0;entryDy=0;entryPerimeter=0;strokeColor=#FF0000;" edge="1" parent="1" source="qA26B9ss1q_fTnFmii6e-4" target="qA26B9ss1q_fTnFmii6e-25">
          <mxGeometry relative="1" as="geometry" />
        </mxCell>
        <mxCell id="qA26B9ss1q_fTnFmii6e-4" value="SqlSession" style="text;html=1;strokeColor=none;fillColor=none;align=center;verticalAlign=middle;whiteSpace=wrap;rounded=0;" vertex="1" parent="1">
          <mxGeometry x="200" y="290" width="60" height="30" as="geometry" />
        </mxCell>
        <mxCell id="qA26B9ss1q_fTnFmii6e-18" style="edgeStyle=none;rounded=0;orthogonalLoop=1;jettySize=auto;html=1;exitX=0.25;exitY=1;exitDx=0;exitDy=0;entryX=0.35;entryY=0.014;entryDx=0;entryDy=0;entryPerimeter=0;strokeColor=#000000;" edge="1" parent="1" source="qA26B9ss1q_fTnFmii6e-5" target="qA26B9ss1q_fTnFmii6e-1">
          <mxGeometry relative="1" as="geometry" />
        </mxCell>
        <mxCell id="qA26B9ss1q_fTnFmii6e-5" value="" style="rounded=1;whiteSpace=wrap;html=1;align=center;fillColor=#cce5ff;strokeColor=#36393d;" vertex="1" parent="1">
          <mxGeometry x="330" y="290" width="120" height="80" as="geometry" />
        </mxCell>
        <mxCell id="qA26B9ss1q_fTnFmii6e-6" value="一级缓存" style="ellipse;whiteSpace=wrap;html=1;fillColor=#ffff88;strokeColor=#36393d;" vertex="1" parent="1">
          <mxGeometry x="365" y="320" width="50" height="50" as="geometry" />
        </mxCell>
        <mxCell id="qA26B9ss1q_fTnFmii6e-7" value="SqlSession" style="text;html=1;strokeColor=none;fillColor=none;align=center;verticalAlign=middle;whiteSpace=wrap;rounded=0;" vertex="1" parent="1">
          <mxGeometry x="360" y="290" width="60" height="30" as="geometry" />
        </mxCell>
        <mxCell id="qA26B9ss1q_fTnFmii6e-22" style="edgeStyle=none;rounded=0;orthogonalLoop=1;jettySize=auto;html=1;exitX=0.25;exitY=1;exitDx=0;exitDy=0;entryX=0.855;entryY=0;entryDx=0;entryDy=4.35;entryPerimeter=0;strokeColor=#000000;" edge="1" parent="1" source="qA26B9ss1q_fTnFmii6e-8" target="qA26B9ss1q_fTnFmii6e-1">
          <mxGeometry relative="1" as="geometry" />
        </mxCell>
        <mxCell id="qA26B9ss1q_fTnFmii6e-8" value="" style="rounded=1;whiteSpace=wrap;html=1;align=center;fillColor=#cce5ff;strokeColor=#36393d;" vertex="1" parent="1">
          <mxGeometry x="490" y="290" width="120" height="80" as="geometry" />
        </mxCell>
        <mxCell id="qA26B9ss1q_fTnFmii6e-9" value="一级缓存" style="ellipse;whiteSpace=wrap;html=1;fillColor=#ffff88;strokeColor=#36393d;" vertex="1" parent="1">
          <mxGeometry x="525" y="320" width="50" height="50" as="geometry" />
        </mxCell>
        <mxCell id="qA26B9ss1q_fTnFmii6e-33" style="edgeStyle=none;rounded=0;orthogonalLoop=1;jettySize=auto;html=1;exitX=0.5;exitY=0;exitDx=0;exitDy=0;entryX=0.59;entryY=0.986;entryDx=0;entryDy=0;entryPerimeter=0;strokeColor=#FF0000;" edge="1" parent="1" source="qA26B9ss1q_fTnFmii6e-10" target="qA26B9ss1q_fTnFmii6e-28">
          <mxGeometry relative="1" as="geometry" />
        </mxCell>
        <mxCell id="qA26B9ss1q_fTnFmii6e-10" value="SqlSession" style="text;html=1;strokeColor=none;fillColor=none;align=center;verticalAlign=middle;whiteSpace=wrap;rounded=0;" vertex="1" parent="1">
          <mxGeometry x="520" y="290" width="60" height="40" as="geometry" />
        </mxCell>
        <mxCell id="qA26B9ss1q_fTnFmii6e-17" value="请求1" style="text;html=1;align=center;verticalAlign=middle;resizable=0;points=[];autosize=1;strokeColor=none;fillColor=none;" vertex="1" parent="1">
          <mxGeometry x="190" y="390" width="50" height="20" as="geometry" />
        </mxCell>
        <mxCell id="qA26B9ss1q_fTnFmii6e-20" value="请求2" style="text;html=1;align=center;verticalAlign=middle;resizable=0;points=[];autosize=1;strokeColor=none;fillColor=none;" vertex="1" parent="1">
          <mxGeometry x="310" y="390" width="50" height="20" as="geometry" />
        </mxCell>
        <mxCell id="qA26B9ss1q_fTnFmii6e-24" value="请求3" style="text;html=1;align=center;verticalAlign=middle;resizable=0;points=[];autosize=1;strokeColor=none;fillColor=none;" vertex="1" parent="1">
          <mxGeometry x="430" y="390" width="50" height="20" as="geometry" />
        </mxCell>
        <mxCell id="qA26B9ss1q_fTnFmii6e-25" value="" style="rounded=1;whiteSpace=wrap;html=1;fillColor=#cce5ff;strokeColor=#36393d;" vertex="1" parent="1">
          <mxGeometry x="145" y="170" width="210" height="70" as="geometry" />
        </mxCell>
        <mxCell id="qA26B9ss1q_fTnFmii6e-26" value="二级缓存" style="ellipse;whiteSpace=wrap;html=1;fillColor=#ffff88;strokeColor=#36393d;" vertex="1" parent="1">
          <mxGeometry x="305" y="180" width="50" height="50" as="geometry" />
        </mxCell>
        <mxCell id="qA26B9ss1q_fTnFmii6e-27" value="com.wink.dao.UserMapper" style="text;html=1;strokeColor=none;fillColor=none;align=center;verticalAlign=middle;whiteSpace=wrap;rounded=0;" vertex="1" parent="1">
          <mxGeometry x="195" y="190" width="60" height="30" as="geometry" />
        </mxCell>
        <mxCell id="qA26B9ss1q_fTnFmii6e-28" value="" style="rounded=1;whiteSpace=wrap;html=1;fillColor=#cce5ff;strokeColor=#36393d;" vertex="1" parent="1">
          <mxGeometry x="425" y="170" width="210" height="70" as="geometry" />
        </mxCell>
        <mxCell id="qA26B9ss1q_fTnFmii6e-29" value="二级缓存" style="ellipse;whiteSpace=wrap;html=1;fillColor=#ffff88;strokeColor=#36393d;" vertex="1" parent="1">
          <mxGeometry x="585" y="180" width="50" height="50" as="geometry" />
        </mxCell>
        <mxCell id="qA26B9ss1q_fTnFmii6e-30" value="com.wink.dao.DeptMapper" style="text;html=1;strokeColor=none;fillColor=none;align=center;verticalAlign=middle;whiteSpace=wrap;rounded=0;" vertex="1" parent="1">
          <mxGeometry x="475" y="190" width="60" height="30" as="geometry" />
        </mxCell>
        <mxCell id="qA26B9ss1q_fTnFmii6e-34" value="&lt;font color=&quot;#ff0000&quot;&gt;会话关闭&lt;/font&gt;" style="text;html=1;align=center;verticalAlign=middle;resizable=0;points=[];autosize=1;strokeColor=none;fillColor=none;" vertex="1" parent="1">
          <mxGeometry x="170" y="260" width="60" height="20" as="geometry" />
        </mxCell>
        <mxCell id="qA26B9ss1q_fTnFmii6e-35" value="&lt;font color=&quot;#ff0000&quot;&gt;会话关闭&lt;/font&gt;" style="text;html=1;align=center;verticalAlign=middle;resizable=0;points=[];autosize=1;strokeColor=none;fillColor=none;" vertex="1" parent="1">
          <mxGeometry x="550" y="260" width="60" height="20" as="geometry" />
        </mxCell>
        <mxCell id="qA26B9ss1q_fTnFmii6e-38" style="edgeStyle=none;rounded=1;orthogonalLoop=1;jettySize=auto;html=1;entryX=0.519;entryY=-0.018;entryDx=0;entryDy=0;entryPerimeter=0;fontSize=14;fontColor=#000000;strokeColor=#00CC00;" edge="1" parent="1" source="qA26B9ss1q_fTnFmii6e-36" target="qA26B9ss1q_fTnFmii6e-31">
          <mxGeometry relative="1" as="geometry" />
        </mxCell>
        <mxCell id="qA26B9ss1q_fTnFmii6e-36" value="&lt;font color=&quot;#000000&quot; style=&quot;font-size: 14px&quot;&gt;新会话会先查找二级缓存，再查找一级缓存，最后查找数据库&lt;/font&gt;" style="text;html=1;align=center;verticalAlign=middle;resizable=0;points=[];autosize=1;strokeColor=none;fillColor=none;fontColor=#FF0000;" vertex="1" parent="1">
          <mxGeometry x="205" y="97" width="390" height="20" as="geometry" />
        </mxCell>
      </root>
    </mxGraphModel>
  </diagram>
</mxfile>
